<svg xmlns="http://www.w3.org/2000/svg" width="35" height="35" fill="white" xmlns:xlink="http://www.w3.org/1999/xlink" version="1.1" x="0px" y="0px" viewBox="0 0 100 125" style="enable-background:new 0 0 100 100;" xml:space="preserve"><path d="M83.2,25.4c-0.9-0.9-2-1.4-3.2-1.4h-8.5v-1.3C71.5,10.9,61.8,1,50.2,1h-0.4c-11.5,0-21.3,9.9-21.3,21.7V24  H20c-2.4,0-4.5,2.1-4.5,4.7v65.8c0,2.5,2,4.5,4.5,4.5h60c2.5,0,4.5-2,4.5-4.5l0-65.9C84.5,27.4,84,26.2,83.2,25.4z M33,47.9  c2.5,0,4.5-2,4.5-4.5V33h25v10.4c0,2.5,2,4.5,4.5,4.5s4.5-2,4.5-4.5V33h4l0,57h-51V33h4v10.4C28.5,45.9,30.5,47.9,33,47.9z M37.5,24  v-1.3c0-6.9,5.6-12.7,12.3-12.7h0.4c6.7,0,12.3,5.8,12.3,12.7V24H37.5z"/></svg>